<?xml version="1.0" encoding="UTF-8" standalone="no" ?>
<!-- Created with Inkscape (http://www.inkscape.org/) -->
<svg
  xmlns="http://www.w3.org/2000/svg"
  xmlns:svg="http://www.w3.org/2000/svg"
  height="32"
  id="svg1"
  version="1.1"
  viewBox="0 0 32 32"
  width="32"
>
  <rect fill="#eff1f5" height="100%" width="100%" />
  <defs id="defs1" />
  <g id="layer1">
    <g id="g4" transform="translate(-0.92040944,-1.6279898)">
      <g id="g5" transform="translate(-0.4625144,-0.0250816)">
        <path
          aria-label="JS"
          d="M 8.2511306,17.509869 V 9.2051811 q 0,-0.34375 0.070312,-0.5390625 0.078125,-0.1953125 0.265625,-0.3046875 0.1953125,-0.1171875 0.5546875,-0.1953125 v -0.00781 H 5.3995681 v 0.00781 q 0.3515625,0.078125 0.546875,0.1953125 0.1953125,0.109375 0.265625,0.3046875 0.078125,0.1953125 0.078125,0.5390625 v 8.0859379 q 0,1.445312 -0.1953125,2.4375 -0.1875,0.992187 -0.640625,1.671875 -0.453125,0.679687 -1.25,1.203125 v 0.0078 q 0.9609375,-0.398437 1.7109375,-0.867187 0.75,-0.460938 1.265625,-1.054688 0.5234375,-0.59375 0.796875,-1.367187 0.2734375,-0.78125 0.2734375,-1.8125 z m 4.9484254,2.046875 q 1.046875,0 1.929687,-0.40625 0.890625,-0.40625 1.429688,-1.148438 0.546875,-0.742187 0.546875,-1.757812 0,-1.171875 -0.710938,-2.023438 -0.703125,-0.851562 -2.023437,-1.382812 l -0.898438,-0.359375 q -1.054687,-0.421875 -1.640625,-0.984375 -0.578125,-0.570313 -0.578125,-1.460938 0,-0.8671874 0.570313,-1.4140624 0.570312,-0.5546875 1.664062,-0.5546875 0.734375,0 1.296875,0.375 0.570313,0.375 0.96875,1.0546875 0.40625,0.6796874 0.640625,1.6093754 h 0.0078 l -0.08594,-2.4843754 q -0.328125,-0.2109375 -1.03125,-0.390625 -0.703125,-0.1875 -1.796875,-0.1875 -1,0 -1.867187,0.3203125 -0.867188,0.3203125 -1.40625,0.9921875 -0.5312501,0.6640624 -0.5312501,1.7109374 0,1.171875 0.6953121,2 0.695313,0.828125 2,1.335938 l 0.921875,0.359375 q 1.15625,0.453125 1.6875,1.039062 0.539063,0.578125 0.539063,1.453125 0,1.0625 -0.664063,1.671875 -0.664062,0.609375 -1.664062,0.609375 -0.625,0 -1.195313,-0.226562 -0.5625,-0.226563 -1.03125,-0.664063 -0.46875,-0.445312 -0.820312,-1.101562 -0.3437501,-0.65625 -0.5312501,-1.53125 h -0.00781 l 0.1328125,2.84375 q 0.5156251,0.28125 1.3671871,0.492187 0.859375,0.210938 2.085938,0.210938 z"
          id="text3-9"
          style="font-weight:496;font-size:16px;font-family:'.New York';-inkscape-font-specification:'.New York weight=496';fill:#209fb5"
        />
        <path
          aria-label="TV"
          d="m 20.52253,15.983774 h -8.804688 l -0.132812,2.671875 h 0.0078 q 0.21875,-0.929687 0.578125,-1.46875 0.359375,-0.539062 0.976563,-0.804687 0.617187,-0.265625 1.585937,-0.351563 l 0.40625,-0.03906 v 10.101562 q 0,0.375 -0.07031,0.609375 -0.07031,0.234375 -0.273438,0.359375 -0.203125,0.125 -0.617187,0.195313 v 0.0078 h 3.882812 v -0.0078 q -0.398437,-0.07031 -0.609375,-0.195313 -0.210937,-0.125 -0.28125,-0.359375 -0.07031,-0.234375 -0.07031,-0.609375 V 15.991587 l 0.40625,0.03906 q 0.976562,0.08594 1.59375,0.351563 0.617187,0.265625 0.976562,0.804687 0.359375,0.539063 0.570313,1.46875 h 0.0078 z m 1.132812,1.71875 3.359375,9.5625 h 0.6875 l 3.242188,-8.96875 q 0.328125,-0.898437 0.5625,-1.367187 0.242187,-0.476563 0.484375,-0.671875 0.242187,-0.203125 0.570312,-0.265625 v -0.0078 h -2.421875 v 0.0078 q 0.507813,0.07031 0.71875,0.289062 0.210938,0.21875 0.15625,0.6875 -0.04687,0.460938 -0.320312,1.289063 l -2.320313,7.085937 h 0.0078 L 23.77253,17.733774 q -0.195313,-0.585937 -0.195313,-0.953125 0.0078,-0.367187 0.210938,-0.546875 0.210937,-0.1875 0.609375,-0.242187 v -0.0078 h -4.109375 v 0.0078 q 0.320312,0.0625 0.546875,0.234375 0.234375,0.164062 0.421875,0.515625 0.1875,0.351562 0.398437,0.960937 z"
          id="text3"
          style="font-weight:496;font-size:16px;font-family:'.New York';-inkscape-font-specification:'.New York weight=496';fill:#7287fd"
        />
      </g>
    </g>
  </g>
</svg>
